<svg id="Layer_1" data-name="Layer 1" xmlns="http://www.w3.org/2000/svg" viewBox="0 0 1173.8 684"><defs><style>.cls-1{fill:blue;}</style></defs><path class="cls-1" d="M129.1,46.2h21L185,721.8H165.5l-9.1-180.1H120.5l-9.3,180.1H93Zm-3.3,388.7h25.6L138.8,184.6Z" transform="translate(-93 -42)"/><path class="cls-1" d="M261.8,503V46.2h17.3V721.8H261.7L215.9,228.3V721.8H198.6V46.2h20.8Z" transform="translate(-93 -42)"/><path class="cls-1" d="M297.9,46.2h35.2c30.5,0,48.1,117,48.1,339.8,0,218.8-18.2,335.8-49.4,335.8H297.9Zm18.5,567.7h15.7c20.1,0,30.1-74.2,30.1-225.8V382c0-155.7-9.3-227.9-29.2-227.9H316.4Z" transform="translate(-93 -42)"/><path class="cls-1" d="M433.2,46.2c27,0,38,77.3,38,188.2,0,95.7-8.5,167.9-23.1,186.2,14.7,29.5,21.6,109.9,24.4,268.6,0,3.1.4,30.5.6,32.6H453.6s-.2-22.4-.2-24.4c-2.3-139.4-9.5-221.8-28.3-222.9H414.7V721.8h-18V46.2ZM414.7,376.9l16.3-1c16.2,0,21.7-68.2,21.7-126.2,0-65.1-5.8-99.7-20.7-99.7H414.7Z" transform="translate(-93 -42)"/><path class="cls-1" d="M540.5,429.8H506.3V610.9h53V721.8H488.2V46.2h69.5V157.1H506.3V318.9h34.2Z" transform="translate(-93 -42)"/><path class="cls-1" d="M568.4,46.2h19.9l16,487.4L623.1,46.2h18.2l18.6,488.4L676.1,46.2h19.3l-27,675.6H650.8L631.7,228.3,612.5,721.8H594.8Z" transform="translate(-93 -42)"/><path class="cls-1" d="M740.3,384c0-205.2,17.8-342,44.2-342,21.9,0,37.4,80.3,41.5,243.9H807.5C804.6,192.7,796.4,156,784.3,156c-15.9,0-25.5,84.3-25.5,223v10c0,139.7,9.5,223,25.2,223,12.8,0,21.3-38.7,23.8-139.8h18.4C822.7,644.7,806.4,726,783.6,726,757.9,726,740.3,588.2,740.3,384Z" transform="translate(-93 -42)"/><path class="cls-1" d="M865.4,46.2h20.9l34.9,675.6H901.8l-9.1-180.1h-36l-9.2,180.1H829.3ZM862,434.9h25.6L875,184.6Z" transform="translate(-93 -42)"/><path class="cls-1" d="M971.3,46.2c27,0,38,77.3,38,188.2,0,95.7-8.5,167.9-23.1,186.2,14.7,29.5,21.7,109.9,24.4,268.6,0,3.1.5,30.5.6,32.6H991.7s-.1-22.4-.1-24.4C989.3,558,982,475.6,963.3,474.5H952.9V721.8H934.8V46.2ZM952.9,376.9l16.3-1c16.2,0,21.6-68.2,21.6-126.2,0-65.1-5.7-99.7-20.6-99.7H952.9Z" transform="translate(-93 -42)"/><path class="cls-1" d="M1078.6,429.8h-34.2V610.9h53V721.8h-71V46.2h69.4V157.1h-51.4V318.9h34.2Z" transform="translate(-93 -42)"/><path class="cls-1" d="M1104.5,499.9h18.4c2.3,85.3,8.6,119,22,119,11.2,0,17.7-34.7,17.7-94.2,0-57.5-10.4-71.3-23.2-89.2-15.5-21.8-32.4-57.5-32.4-188.3,0-120,14.7-205.2,34.6-205.2,22.1,0,36.2,79.3,38.4,222h-18.1c-1.6-80.3-8.2-116.9-20.4-116.9-10.4,0-16.7,35.7-16.7,91.2,0,62.4,11.6,71.3,24.4,89.2,15.4,20.8,31.3,54.5,31.3,187.3,0,125.9-13.3,209.2-34.9,209.2C1120.8,724,1107.6,639.7,1104.5,499.9Z" transform="translate(-93 -42)"/><path class="cls-1" d="M1190.9,499.9h18.4c2.3,85.3,8.6,119,21.9,119,11.3,0,17.8-34.7,17.8-94.2,0-57.5-10.4-71.3-23.2-89.2-15.5-21.8-32.4-57.5-32.4-188.3,0-120,14.6-205.2,34.6-205.2,22.1,0,36.2,79.3,38.4,222h-18.1c-1.6-80.3-8.2-116.9-20.4-116.9-10.4,0-16.8,35.7-16.8,91.2,0,62.4,11.7,71.3,24.5,89.2,15.3,20.8,31.2,54.5,31.2,187.3,0,125.9-13.2,209.2-34.9,209.2C1207.2,724,1194,639.7,1190.9,499.9Z" transform="translate(-93 -42)"/></svg>